<svg xmlns="http://www.w3.org/2000/svg" width="48" height="48" viewBox="0 0 48 48">
  <path id="circle-question-regular" d="M24,0A24,24,0,1,0,48,24,24,24,0,0,0,24,0Zm0,43.5A19.5,19.5,0,1,1,43.5,24,19.522,19.522,0,0,1,24,43.5Zm0-12a2.962,2.962,0,0,0-3,3,2.911,2.911,0,0,0,3,3,3,3,0,0,0,0-6ZM27.1,12H22.313a6.522,6.522,0,0,0-6.562,6.563,2.25,2.25,0,0,0,4.5,0A2.01,2.01,0,0,1,22.228,16.5h4.791a2.176,2.176,0,0,1,2.231,2.063,1.881,1.881,0,0,1-1.031,1.7l-5.344,3.272A2.312,2.312,0,0,0,21.75,25.5V27a2.25,2.25,0,0,0,4.5,0v-.187l4.228-2.625a6.689,6.689,0,0,0,3.188-5.625A6.419,6.419,0,0,0,27.1,12Z" fill="#e87667"/>
</svg>