<svg xmlns="http://www.w3.org/2000/svg" width="112" height="112" viewBox="0 0 112 112">
  <g id="Group_221" data-name="Group 221" transform="translate(-151 -76)">
    <circle id="Ellipse_17" data-name="Ellipse 17" cx="56" cy="56" r="56" transform="translate(151 76)" fill="#e87667"/>
    <g id="Group_124" data-name="Group 124" transform="translate(-7643 -7022.921)">
      <g id="Polygon_2" data-name="Polygon 2" transform="translate(7820 7133.868)" fill="#fff">
        <path d="M 46.16270065307617 50.60526657104492 L 13.83730220794678 50.60526657104492 C 11.48905181884766 50.60526657104492 9.385421752929688 49.39156723022461 8.210082054138184 47.35863876342773 C 7.034741878509521 45.32568740844727 7.032561779022217 42.89703750610352 8.204252243041992 40.86199951171875 L 24.36695098876953 12.78994750976562 C 25.54107284545898 10.75067806243896 27.64688110351562 9.533207893371582 30.00000190734863 9.533207893371582 C 32.35311126708984 9.533207893371582 34.45892333984375 10.75067806243896 35.63304138183594 12.78993797302246 L 51.79575347900391 40.86199951171875 C 52.96744155883789 42.89703750610352 52.96526336669922 45.32569885253906 51.78992080688477 47.35863876342773 C 50.61458206176758 49.39157867431641 48.51095199584961 50.60526657104492 46.16270065307617 50.60526657104492 Z" stroke="none"/>
        <path d="M 29.99999237060547 11.03319931030273 C 28.18990135192871 11.03319931030273 26.57005310058594 11.96971893310547 25.6668815612793 13.53837966918945 L 9.504192352294922 41.61043548583984 C 8.602890014648438 43.17585754394531 8.604560852050781 45.04404830932617 9.508670806884766 46.60784912109375 C 10.41277313232422 48.17164611816406 12.03095245361328 49.10525894165039 13.83730316162109 49.10525894165039 L 46.16270065307617 49.10525894165039 C 47.96903991699219 49.10525894165039 49.58722305297852 48.17164611816406 50.4913330078125 46.60784912109375 C 51.39544296264648 45.04404830932617 51.39710998535156 43.17585754394531 50.49581146240234 41.61043548583984 L 34.33309936523438 13.53837966918945 C 33.429931640625 11.96971893310547 31.81008148193359 11.03319931030273 29.99999237060547 11.03319931030273 M 29.99999618530273 8.033203125 C 32.69721984863281 8.033203125 35.39443969726562 9.369297027587891 36.9329719543457 12.04148864746094 L 53.09568023681641 40.11354827880859 C 56.1663818359375 45.44687652587891 52.31685256958008 52.10525894165039 46.16270065307617 52.10525894165039 L 13.83730316162109 52.10525894165039 C 7.683143615722656 52.10525894165039 3.833621978759766 45.44687652587891 6.904323577880859 40.11354827880859 L 23.06701278686523 12.04148864746094 C 24.60554504394531 9.369297027587891 27.30277252197266 8.033203125 29.99999618530273 8.033203125 Z" stroke="none" fill="#e87667"/>
      </g>
      <g id="Ellipse_16" data-name="Ellipse 16" transform="translate(7833.636 7123.868)" fill="#fff" stroke="#e87667" stroke-width="3">
        <circle cx="17.5" cy="17.5" r="17.5" stroke="none"/>
        <circle cx="17.5" cy="17.5" r="16" fill="none"/>
      </g>
    </g>
  </g>
</svg>
